<svg width="8" height="12" fill="none" xmlns="http://www.w3.org/2000/svg"><path d="M4 1.97c.695 0 1.26.554 1.26 1.235 0 .68-.565 1.233-1.26 1.233-.695 0-1.26-.554-1.26-1.233 0-.68.565-1.235 1.26-1.235Zm0 4.216c1.679 0 3.043-1.337 3.043-2.98C7.043 1.56 5.68.221 4 .221 2.322.222.96 1.56.96 3.205.959 4.85 2.322 6.186 4 6.186ZM5.23 8.62a5.8 5.8 0 0 0 1.767-.718.864.864 0 0 0 .28-1.205.9.9 0 0 0-1.23-.275 3.932 3.932 0 0 1-4.096 0 .898.898 0 0 0-1.229.275.864.864 0 0 0 .28 1.205 5.8 5.8 0 0 0 1.767.718l-1.701 1.666a.862.862 0 0 0 0 1.235.902.902 0 0 0 1.262 0L4 9.884l1.672 1.637a.9.9 0 0 0 1.26 0 .862.862 0 0 0 0-1.235L5.231 8.62Z" fill="#fff"/></svg>